<svg xmlns="http://www.w3.org/2000/svg" xmlns:xlink="http://www.w3.org/1999/xlink" width="500" zoomAndPan="magnify" viewBox="0 0 375 374.999991" height="500" preserveAspectRatio="xMidYMid meet" version="1.0"><defs><g/></defs><g fill="#ff1616" fill-opacity="1"><g transform="translate(72.832031, 198.545349)"><g><path d="M 14.921875 -25.921875 C 18.316406 -25.921875 21.191406 -25.253906 23.546875 -23.921875 C 25.898438 -22.597656 27.078125 -20.546875 27.078125 -17.765625 L 18.1875 -17.765625 C 18.1875 -18.691406 17.769531 -19.347656 16.9375 -19.734375 C 16.363281 -20.046875 15.644531 -20.203125 14.78125 -20.203125 C 12.476562 -20.203125 11.328125 -19.660156 11.328125 -18.578125 C 11.328125 -17.960938 11.726562 -17.523438 12.53125 -17.265625 C 13.332031 -17.015625 14.644531 -16.75 16.46875 -16.46875 C 18.707031 -16.144531 20.578125 -15.765625 22.078125 -15.328125 C 23.585938 -14.898438 24.898438 -14.132812 26.015625 -13.03125 C 27.140625 -11.925781 27.703125 -10.382812 27.703125 -8.40625 C 27.703125 -5.164062 26.492188 -2.859375 24.078125 -1.484375 C 21.660156 -0.109375 18.5 0.578125 14.59375 0.578125 C 12.351562 0.578125 10.238281 0.265625 8.25 -0.359375 C 6.269531 -0.984375 4.65625 -1.953125 3.40625 -3.265625 C 2.15625 -4.578125 1.53125 -6.238281 1.53125 -8.25 L 10.421875 -8.25 L 10.421875 -8.0625 C 10.453125 -6.976562 10.90625 -6.21875 11.78125 -5.78125 C 12.664062 -5.351562 13.601562 -5.140625 14.59375 -5.140625 C 17.25 -5.140625 18.578125 -5.765625 18.578125 -7.015625 C 18.578125 -7.648438 18.160156 -8.109375 17.328125 -8.390625 C 16.492188 -8.679688 15.132812 -8.988281 13.25 -9.3125 C 10.976562 -9.695312 9.113281 -10.113281 7.65625 -10.5625 C 6.195312 -11.007812 4.921875 -11.769531 3.828125 -12.84375 C 2.742188 -13.914062 2.203125 -15.410156 2.203125 -17.328125 C 2.203125 -20.429688 3.378906 -22.640625 5.734375 -23.953125 C 8.085938 -25.265625 11.148438 -25.921875 14.921875 -25.921875 Z M 14.921875 -25.921875 "/></g></g></g><g fill="#ff1616" fill-opacity="1"><g transform="translate(102.159975, 198.545349)"><g><path d="M 19.78125 -25.34375 L 19.78125 -18.859375 L 14.40625 -18.859375 L 14.40625 -9.21875 C 14.40625 -8.0625 14.59375 -7.21875 14.96875 -6.6875 C 15.351562 -6.164062 16.0625 -5.90625 17.09375 -5.90625 L 19.78125 -5.90625 L 19.78125 -0.28125 C 19.007812 -0.03125 18.015625 0.171875 16.796875 0.328125 C 15.578125 0.492188 14.519531 0.578125 13.625 0.578125 C 10.8125 0.578125 8.644531 0.0664062 7.125 -0.953125 C 5.601562 -1.984375 4.84375 -3.726562 4.84375 -6.1875 L 4.84375 -18.859375 L 1.296875 -18.859375 L 1.296875 -25.34375 L 5.234375 -25.34375 L 7.296875 -33.03125 L 14.40625 -33.03125 L 14.40625 -25.34375 Z M 19.78125 -25.34375 "/></g></g></g><g fill="#ff1616" fill-opacity="1"><g transform="translate(123.47194, 198.545349)"><g><path d="M 15.984375 -25.921875 C 20.617188 -25.921875 24.160156 -24.832031 26.609375 -22.65625 C 29.054688 -20.476562 30.28125 -17.148438 30.28125 -12.671875 L 30.28125 -11.046875 L 11.28125 -11.046875 C 11.28125 -9.210938 11.6875 -7.832031 12.5 -6.90625 C 13.320312 -5.976562 14.613281 -5.515625 16.375 -5.515625 C 17.96875 -5.515625 19.140625 -5.847656 19.890625 -6.515625 C 20.648438 -7.191406 21.03125 -8.09375 21.03125 -9.21875 L 30.28125 -9.21875 C 30.28125 -6.144531 29.113281 -3.742188 26.78125 -2.015625 C 24.445312 -0.285156 21.039062 0.578125 16.5625 0.578125 C 11.851562 0.578125 8.203125 -0.515625 5.609375 -2.703125 C 3.023438 -4.898438 1.734375 -8.222656 1.734375 -12.671875 C 1.734375 -17.023438 2.992188 -20.320312 5.515625 -22.5625 C 8.046875 -24.800781 11.535156 -25.921875 15.984375 -25.921875 Z M 16.375 -19.828125 C 13.363281 -19.828125 11.679688 -18.398438 11.328125 -15.546875 L 20.640625 -15.546875 C 20.640625 -16.859375 20.265625 -17.898438 19.515625 -18.671875 C 18.765625 -19.441406 17.71875 -19.828125 16.375 -19.828125 Z M 16.375 -19.828125 "/></g></g></g><g fill="#ff1616" fill-opacity="1"><g transform="translate(155.487883, 198.545349)"><g><path d="M 13.203125 -35.375 C 13.898438 -35.375 14.773438 -35.285156 15.828125 -35.109375 C 16.890625 -34.929688 17.742188 -34.734375 18.390625 -34.515625 L 18.390625 -28.890625 L 16.171875 -28.890625 C 15.148438 -28.890625 14.445312 -28.695312 14.0625 -28.3125 C 13.675781 -27.9375 13.484375 -27.285156 13.484375 -26.359375 L 13.484375 -25.34375 L 18.390625 -25.34375 L 18.390625 -18.859375 L 13.484375 -18.859375 L 13.484375 0 L 3.9375 0 L 3.9375 -18.859375 L 0.390625 -18.859375 L 0.390625 -25.34375 L 3.9375 -25.34375 L 3.9375 -26.40625 C 3.9375 -29.664062 4.734375 -31.972656 6.328125 -33.328125 C 7.929688 -34.691406 10.222656 -35.375 13.203125 -35.375 Z M 13.203125 -35.375 "/></g></g></g><g fill="#ff1616" fill-opacity="1"><g transform="translate(174.159844, 198.545349)"><g><path d="M 15.40625 -25.921875 C 19.28125 -25.921875 22.429688 -25.269531 24.859375 -23.96875 C 27.296875 -22.675781 28.515625 -20.570312 28.515625 -17.65625 L 28.515625 -7.78125 C 28.515625 -7.226562 28.640625 -6.773438 28.890625 -6.421875 C 29.148438 -6.078125 29.535156 -5.90625 30.046875 -5.90625 L 31.78125 -5.90625 L 31.78125 -0.390625 C 31.675781 -0.316406 31.425781 -0.207031 31.03125 -0.0625 C 30.632812 0.0703125 30.066406 0.210938 29.328125 0.359375 C 28.585938 0.503906 27.738281 0.578125 26.78125 0.578125 C 24.925781 0.578125 23.398438 0.296875 22.203125 -0.265625 C 21.003906 -0.828125 20.179688 -1.601562 19.734375 -2.59375 C 18.515625 -1.632812 17.148438 -0.863281 15.640625 -0.28125 C 14.140625 0.289062 12.382812 0.578125 10.375 0.578125 C 4.414062 0.578125 1.4375 -1.789062 1.4375 -6.53125 C 1.4375 -8.988281 2.097656 -10.863281 3.421875 -12.15625 C 4.753906 -13.457031 6.664062 -14.347656 9.15625 -14.828125 C 11.65625 -15.304688 14.921875 -15.546875 18.953125 -15.546875 L 18.953125 -16.796875 C 18.953125 -17.785156 18.609375 -18.535156 17.921875 -19.046875 C 17.234375 -19.566406 16.347656 -19.828125 15.265625 -19.828125 C 14.273438 -19.828125 13.414062 -19.648438 12.6875 -19.296875 C 11.96875 -18.941406 11.609375 -18.378906 11.609375 -17.609375 L 11.609375 -17.421875 L 2.203125 -17.421875 C 2.171875 -17.578125 2.15625 -17.800781 2.15625 -18.09375 C 2.15625 -20.5 3.300781 -22.40625 5.59375 -23.8125 C 7.882812 -25.21875 11.15625 -25.921875 15.40625 -25.921875 Z M 18.953125 -11.046875 C 16.234375 -11.046875 14.222656 -10.75 12.921875 -10.15625 C 11.628906 -9.5625 10.984375 -8.769531 10.984375 -7.78125 C 10.984375 -6.175781 12.070312 -5.375 14.25 -5.375 C 15.5 -5.375 16.59375 -5.707031 17.53125 -6.375 C 18.476562 -7.050781 18.953125 -7.882812 18.953125 -8.875 Z M 18.953125 -11.046875 "/></g></g></g><g fill="#ff1616" fill-opacity="1"><g transform="translate(206.175787, 198.545349)"><g><path d="M 20.359375 -25.921875 C 23.296875 -25.921875 25.5 -25.101562 26.96875 -23.46875 C 28.445312 -21.84375 29.1875 -19.492188 29.1875 -16.421875 L 29.1875 0 L 19.625 0 L 19.625 -15.265625 C 19.625 -16.347656 19.34375 -17.21875 18.78125 -17.875 C 18.226562 -18.53125 17.441406 -18.859375 16.421875 -18.859375 C 15.234375 -18.859375 14.269531 -18.472656 13.53125 -17.703125 C 12.800781 -16.941406 12.4375 -16 12.4375 -14.875 L 12.4375 0 L 2.875 0 L 2.875 -25.34375 L 10.703125 -25.34375 L 11.328125 -21.5 C 12.316406 -22.84375 13.617188 -23.914062 15.234375 -24.71875 C 16.847656 -25.519531 18.554688 -25.921875 20.359375 -25.921875 Z M 20.359375 -25.921875 "/></g></g></g><g fill="#ff1616" fill-opacity="1"><g transform="translate(238.191731, 198.545349)"><g><path d="M 3.21875 -28.3125 L 3.21875 -34.796875 L 12.765625 -34.796875 L 12.765625 -28.3125 Z M 3.21875 0 L 3.21875 -25.34375 L 12.765625 -25.34375 L 12.765625 0 Z M 3.21875 0 "/></g></g></g><g fill="#ff1616" fill-opacity="1"><g transform="translate(254.175704, 198.545349)"><g><path d="M 20.359375 -25.921875 C 23.296875 -25.921875 25.5 -25.101562 26.96875 -23.46875 C 28.445312 -21.84375 29.1875 -19.492188 29.1875 -16.421875 L 29.1875 0 L 19.625 0 L 19.625 -15.265625 C 19.625 -16.347656 19.34375 -17.21875 18.78125 -17.875 C 18.226562 -18.53125 17.441406 -18.859375 16.421875 -18.859375 C 15.234375 -18.859375 14.269531 -18.472656 13.53125 -17.703125 C 12.800781 -16.941406 12.4375 -16 12.4375 -14.875 L 12.4375 0 L 2.875 0 L 2.875 -25.34375 L 10.703125 -25.34375 L 11.328125 -21.5 C 12.316406 -22.84375 13.617188 -23.914062 15.234375 -24.71875 C 16.847656 -25.519531 18.554688 -25.921875 20.359375 -25.921875 Z M 20.359375 -25.921875 "/></g></g></g><g fill="#ff1616" fill-opacity="1"><g transform="translate(286.191636, 198.545349)"><g><path d="M 3.21875 -28.3125 L 3.21875 -34.796875 L 12.765625 -34.796875 L 12.765625 -28.3125 Z M 3.21875 0 L 3.21875 -25.34375 L 12.765625 -25.34375 L 12.765625 0 Z M 3.21875 0 "/></g></g></g><g fill="#db2a34" fill-opacity="0.4"><g transform="translate(169.672951, 212.607993)"><g><path d="M 1.5 -5.09375 L 1.5 -2.890625 L 4.40625 -2.890625 L 4.40625 -2.375 L 1.5 -2.375 L 1.5 0 L 0.90625 0 L 0.90625 -5.59375 L 4.75 -5.59375 L 4.75 -5.09375 Z M 1.5 -5.09375 "/></g></g></g><g fill="#db2a34" fill-opacity="0.4"><g transform="translate(178.361013, 212.607993)"><g><path d="M 3.359375 0.046875 C 2.804688 0.046875 2.300781 -0.078125 1.84375 -0.328125 C 1.394531 -0.578125 1.046875 -0.914062 0.796875 -1.34375 C 0.546875 -1.769531 0.421875 -2.253906 0.421875 -2.796875 C 0.421875 -3.335938 0.546875 -3.820312 0.796875 -4.25 C 1.046875 -4.6875 1.394531 -5.023438 1.84375 -5.265625 C 2.300781 -5.515625 2.804688 -5.640625 3.359375 -5.640625 C 3.910156 -5.640625 4.410156 -5.515625 4.859375 -5.265625 C 5.304688 -5.023438 5.65625 -4.6875 5.90625 -4.25 C 6.164062 -3.820312 6.296875 -3.335938 6.296875 -2.796875 C 6.296875 -2.253906 6.164062 -1.765625 5.90625 -1.328125 C 5.65625 -0.898438 5.304688 -0.5625 4.859375 -0.3125 C 4.410156 -0.0703125 3.910156 0.046875 3.359375 0.046875 Z M 3.359375 -0.484375 C 3.804688 -0.484375 4.207031 -0.582031 4.5625 -0.78125 C 4.914062 -0.976562 5.191406 -1.253906 5.390625 -1.609375 C 5.597656 -1.960938 5.703125 -2.359375 5.703125 -2.796875 C 5.703125 -3.234375 5.597656 -3.628906 5.390625 -3.984375 C 5.191406 -4.335938 4.914062 -4.613281 4.5625 -4.8125 C 4.207031 -5.019531 3.804688 -5.125 3.359375 -5.125 C 2.921875 -5.125 2.519531 -5.019531 2.15625 -4.8125 C 1.789062 -4.613281 1.503906 -4.335938 1.296875 -3.984375 C 1.097656 -3.628906 1 -3.234375 1 -2.796875 C 1 -2.359375 1.097656 -1.960938 1.296875 -1.609375 C 1.503906 -1.253906 1.789062 -0.976562 2.15625 -0.78125 C 2.519531 -0.582031 2.921875 -0.484375 3.359375 -0.484375 Z M 3.359375 -0.484375 "/></g></g></g><g fill="#db2a34" fill-opacity="0.4"><g transform="translate(188.697091, 212.607993)"><g><path d="M 3.359375 0.046875 C 2.804688 0.046875 2.300781 -0.078125 1.84375 -0.328125 C 1.394531 -0.578125 1.046875 -0.914062 0.796875 -1.34375 C 0.546875 -1.769531 0.421875 -2.253906 0.421875 -2.796875 C 0.421875 -3.335938 0.546875 -3.820312 0.796875 -4.25 C 1.046875 -4.6875 1.394531 -5.023438 1.84375 -5.265625 C 2.300781 -5.515625 2.804688 -5.640625 3.359375 -5.640625 C 3.910156 -5.640625 4.410156 -5.515625 4.859375 -5.265625 C 5.304688 -5.023438 5.65625 -4.6875 5.90625 -4.25 C 6.164062 -3.820312 6.296875 -3.335938 6.296875 -2.796875 C 6.296875 -2.253906 6.164062 -1.765625 5.90625 -1.328125 C 5.65625 -0.898438 5.304688 -0.5625 4.859375 -0.3125 C 4.410156 -0.0703125 3.910156 0.046875 3.359375 0.046875 Z M 3.359375 -0.484375 C 3.804688 -0.484375 4.207031 -0.582031 4.5625 -0.78125 C 4.914062 -0.976562 5.191406 -1.253906 5.390625 -1.609375 C 5.597656 -1.960938 5.703125 -2.359375 5.703125 -2.796875 C 5.703125 -3.234375 5.597656 -3.628906 5.390625 -3.984375 C 5.191406 -4.335938 4.914062 -4.613281 4.5625 -4.8125 C 4.207031 -5.019531 3.804688 -5.125 3.359375 -5.125 C 2.921875 -5.125 2.519531 -5.019531 2.15625 -4.8125 C 1.789062 -4.613281 1.503906 -4.335938 1.296875 -3.984375 C 1.097656 -3.628906 1 -3.234375 1 -2.796875 C 1 -2.359375 1.097656 -1.960938 1.296875 -1.609375 C 1.503906 -1.253906 1.789062 -0.976562 2.15625 -0.78125 C 2.519531 -0.582031 2.921875 -0.484375 3.359375 -0.484375 Z M 3.359375 -0.484375 "/></g></g></g><g fill="#db2a34" fill-opacity="0.4"><g transform="translate(199.033167, 212.607993)"><g><path d="M 0.90625 -5.59375 L 3.1875 -5.59375 C 3.78125 -5.59375 4.300781 -5.472656 4.75 -5.234375 C 5.207031 -5.003906 5.5625 -4.675781 5.8125 -4.25 C 6.0625 -3.820312 6.1875 -3.335938 6.1875 -2.796875 C 6.1875 -2.253906 6.0625 -1.769531 5.8125 -1.34375 C 5.5625 -0.925781 5.207031 -0.597656 4.75 -0.359375 C 4.300781 -0.117188 3.78125 0 3.1875 0 L 0.90625 0 Z M 3.15625 -0.515625 C 3.644531 -0.515625 4.070312 -0.609375 4.4375 -0.796875 C 4.8125 -0.992188 5.097656 -1.265625 5.296875 -1.609375 C 5.503906 -1.953125 5.609375 -2.347656 5.609375 -2.796875 C 5.609375 -3.242188 5.503906 -3.640625 5.296875 -3.984375 C 5.097656 -4.328125 4.8125 -4.597656 4.4375 -4.796875 C 4.070312 -4.992188 3.644531 -5.09375 3.15625 -5.09375 L 1.5 -5.09375 L 1.5 -0.515625 Z M 3.15625 -0.515625 "/></g></g></g><g fill="#ff1616" fill-opacity="1"><g transform="translate(169.510317, 212.445352)"><g><path d="M 1.5 -5.09375 L 1.5 -2.890625 L 4.40625 -2.890625 L 4.40625 -2.375 L 1.5 -2.375 L 1.5 0 L 0.90625 0 L 0.90625 -5.59375 L 4.75 -5.59375 L 4.75 -5.09375 Z M 1.5 -5.09375 "/></g></g></g><g fill="#ff1616" fill-opacity="1"><g transform="translate(178.198379, 212.445352)"><g><path d="M 3.359375 0.046875 C 2.804688 0.046875 2.300781 -0.078125 1.84375 -0.328125 C 1.394531 -0.578125 1.046875 -0.914062 0.796875 -1.34375 C 0.546875 -1.769531 0.421875 -2.253906 0.421875 -2.796875 C 0.421875 -3.335938 0.546875 -3.820312 0.796875 -4.25 C 1.046875 -4.6875 1.394531 -5.023438 1.84375 -5.265625 C 2.300781 -5.515625 2.804688 -5.640625 3.359375 -5.640625 C 3.910156 -5.640625 4.410156 -5.515625 4.859375 -5.265625 C 5.304688 -5.023438 5.65625 -4.6875 5.90625 -4.25 C 6.164062 -3.820312 6.296875 -3.335938 6.296875 -2.796875 C 6.296875 -2.253906 6.164062 -1.765625 5.90625 -1.328125 C 5.65625 -0.898438 5.304688 -0.5625 4.859375 -0.3125 C 4.410156 -0.0703125 3.910156 0.046875 3.359375 0.046875 Z M 3.359375 -0.484375 C 3.804688 -0.484375 4.207031 -0.582031 4.5625 -0.78125 C 4.914062 -0.976562 5.191406 -1.253906 5.390625 -1.609375 C 5.597656 -1.960938 5.703125 -2.359375 5.703125 -2.796875 C 5.703125 -3.234375 5.597656 -3.628906 5.390625 -3.984375 C 5.191406 -4.335938 4.914062 -4.613281 4.5625 -4.8125 C 4.207031 -5.019531 3.804688 -5.125 3.359375 -5.125 C 2.921875 -5.125 2.519531 -5.019531 2.15625 -4.8125 C 1.789062 -4.613281 1.503906 -4.335938 1.296875 -3.984375 C 1.097656 -3.628906 1 -3.234375 1 -2.796875 C 1 -2.359375 1.097656 -1.960938 1.296875 -1.609375 C 1.503906 -1.253906 1.789062 -0.976562 2.15625 -0.78125 C 2.519531 -0.582031 2.921875 -0.484375 3.359375 -0.484375 Z M 3.359375 -0.484375 "/></g></g></g><g fill="#ff1616" fill-opacity="1"><g transform="translate(188.534456, 212.445352)"><g><path d="M 3.359375 0.046875 C 2.804688 0.046875 2.300781 -0.078125 1.84375 -0.328125 C 1.394531 -0.578125 1.046875 -0.914062 0.796875 -1.34375 C 0.546875 -1.769531 0.421875 -2.253906 0.421875 -2.796875 C 0.421875 -3.335938 0.546875 -3.820312 0.796875 -4.25 C 1.046875 -4.6875 1.394531 -5.023438 1.84375 -5.265625 C 2.300781 -5.515625 2.804688 -5.640625 3.359375 -5.640625 C 3.910156 -5.640625 4.410156 -5.515625 4.859375 -5.265625 C 5.304688 -5.023438 5.65625 -4.6875 5.90625 -4.25 C 6.164062 -3.820312 6.296875 -3.335938 6.296875 -2.796875 C 6.296875 -2.253906 6.164062 -1.765625 5.90625 -1.328125 C 5.65625 -0.898438 5.304688 -0.5625 4.859375 -0.3125 C 4.410156 -0.0703125 3.910156 0.046875 3.359375 0.046875 Z M 3.359375 -0.484375 C 3.804688 -0.484375 4.207031 -0.582031 4.5625 -0.78125 C 4.914062 -0.976562 5.191406 -1.253906 5.390625 -1.609375 C 5.597656 -1.960938 5.703125 -2.359375 5.703125 -2.796875 C 5.703125 -3.234375 5.597656 -3.628906 5.390625 -3.984375 C 5.191406 -4.335938 4.914062 -4.613281 4.5625 -4.8125 C 4.207031 -5.019531 3.804688 -5.125 3.359375 -5.125 C 2.921875 -5.125 2.519531 -5.019531 2.15625 -4.8125 C 1.789062 -4.613281 1.503906 -4.335938 1.296875 -3.984375 C 1.097656 -3.628906 1 -3.234375 1 -2.796875 C 1 -2.359375 1.097656 -1.960938 1.296875 -1.609375 C 1.503906 -1.253906 1.789062 -0.976562 2.15625 -0.78125 C 2.519531 -0.582031 2.921875 -0.484375 3.359375 -0.484375 Z M 3.359375 -0.484375 "/></g></g></g><g fill="#ff1616" fill-opacity="1"><g transform="translate(198.870533, 212.445352)"><g><path d="M 0.90625 -5.59375 L 3.1875 -5.59375 C 3.78125 -5.59375 4.300781 -5.472656 4.75 -5.234375 C 5.207031 -5.003906 5.5625 -4.675781 5.8125 -4.25 C 6.0625 -3.820312 6.1875 -3.335938 6.1875 -2.796875 C 6.1875 -2.253906 6.0625 -1.769531 5.8125 -1.34375 C 5.5625 -0.925781 5.207031 -0.597656 4.75 -0.359375 C 4.300781 -0.117188 3.78125 0 3.1875 0 L 0.90625 0 Z M 3.15625 -0.515625 C 3.644531 -0.515625 4.070312 -0.609375 4.4375 -0.796875 C 4.8125 -0.992188 5.097656 -1.265625 5.296875 -1.609375 C 5.503906 -1.953125 5.609375 -2.347656 5.609375 -2.796875 C 5.609375 -3.242188 5.503906 -3.640625 5.296875 -3.984375 C 5.097656 -4.328125 4.8125 -4.597656 4.4375 -4.796875 C 4.070312 -4.992188 3.644531 -5.09375 3.15625 -5.09375 L 1.5 -5.09375 L 1.5 -0.515625 Z M 3.15625 -0.515625 "/></g></g></g></svg>